<svg width="100" height="100" fill="none" xmlns="http://www.w3.org/2000/svg"><path d="M0 67.466V60.29h1.168v6.133h2.605v1.043H0Zm10.513-3.575c0-.362-.065-.706-.197-1.033a2.635 2.635 0 0 0-.569-.872 2.524 2.524 0 0 0-.843-.58 2.546 2.546 0 0 0-1.007-.204 2.553 2.553 0 0 0-1.857.785c-.248.25-.438.539-.569.868a2.745 2.745 0 0 0-.197 1.036c0 .365.066.71.197 1.032.131.324.321.612.57.865a2.554 2.554 0 0 0 1.856.784c.35 0 .683-.066.996-.2.316-.133.6-.329.854-.584.248-.253.438-.542.57-.868.13-.326.196-.669.196-1.03Zm1.219 0c0 .51-.097.994-.288 1.448-.19.455-.47.86-.836 1.215-.37.358-.787.631-1.251.821-.463.187-.949.281-1.46.281a3.9 3.9 0 0 1-1.477-.285 3.81 3.81 0 0 1-1.244-.817 3.644 3.644 0 0 1-.832-1.208 3.727 3.727 0 0 1-.285-1.455c0-.513.095-.996.285-1.449.19-.454.467-.862.832-1.222a3.871 3.871 0 0 1 1.244-.814c.464-.187.957-.28 1.477-.28a3.831 3.831 0 0 1 2.711 1.095 3.738 3.738 0 0 1 1.124 2.67ZM13.08 67.466V60.29h1.168v6.133h2.605v1.043H13.08Z" fill="#414141"/><path d="M19.321 64.646h2l-.734-1.635a5.05 5.05 0 0 1-.135-.36 10.33 10.33 0 0 1-.135-.457c-.04.159-.082.306-.128.442a9.14 9.14 0 0 1-.131.375l-.737 1.635Zm3.225 2.82-.813-1.85H18.89l-.835 1.85h-1.226l3.477-7.461 3.47 7.461h-1.23ZM28.662 63.289h.3c.646 0 1.077-.07 1.29-.208.217-.14.326-.39.326-.748 0-.382-.116-.65-.347-.807-.229-.158-.652-.237-1.27-.237h-.299v2Zm-.076.956v3.221h-1.091V60.29h1.765c.523 0 .907.029 1.154.087.245.057.46.15.645.281.224.166.4.39.526.675.128.283.193.593.193.93 0 .342-.065.656-.193.945a1.621 1.621 0 0 1-.526.675c-.185.13-.4.222-.645.278-.247.056-.63.084-1.154.084h-.674ZM33.656 63.559c.114-.307.265-.533.453-.679.19-.148.423-.223.7-.223a2.015 2.015 0 0 1 .872.212l-.383.901a.98.98 0 0 0-.296-.146 1.28 1.28 0 0 0-.353-.047c-.356 0-.61.142-.763.427-.153.282-.23.757-.23 1.423v2.04h-1.062v-4.66h1.062v.752ZM39.963 65.157c0-.43-.14-.796-.42-1.095a1.335 1.335 0 0 0-1.018-.448c-.4 0-.739.149-1.018.448-.28.3-.42.664-.42 1.095 0 .43.14.795.42 1.094.28.3.619.449 1.018.449s.738-.15 1.018-.449c.28-.299.42-.664.42-1.094Zm-3.995-.011c0-.338.063-.658.193-.96a2.485 2.485 0 0 1 1.38-1.342c.31-.125.635-.187.973-.187.35 0 .68.062.99.187.307.124.585.306.83.547.246.239.432.509.56.81.125.302.189.616.189.945 0 .343-.064.666-.19.967a2.301 2.301 0 0 1-.55.799 2.6 2.6 0 0 1-2.799.555 2.497 2.497 0 0 1-.829-.544 2.5 2.5 0 0 1-.558-.814 2.455 2.455 0 0 1-.19-.963ZM42.359 67.466V63.75h-.814v-.931h.814v-1.244c0-.618.128-1.074.383-1.368.257-.294.657-.442 1.197-.442.114 0 .23.01.35.026.121.014.245.04.369.076v.964a.976.976 0 0 0-.518-.15c-.256 0-.44.08-.551.237-.113.156-.168.42-.168.792v1.109h1.12v.93h-1.12v3.718h-1.062ZM49.766 65.299H46.05c.027.436.155.775.387 1.018.23.244.54.365.927.365.343 0 .628-.071.857-.216.228-.143.428-.375.599-.696l.897.5c-.263.467-.587.815-.974 1.043-.385.228-.836.343-1.354.343-.747 0-1.34-.226-1.78-.679-.44-.454-.66-1.061-.66-1.82 0-.73.227-1.328.682-1.795.454-.47 1.04-.705 1.758-.705.746 0 1.33.215 1.748.643.418.428.628 1.028.628 1.798v.2Zm-1.102-.715c-.042-.333-.17-.588-.383-.763-.212-.175-.503-.262-.872-.262-.35 0-.632.085-.843.255-.212.17-.36.427-.445.77h2.543ZM50.345 66.624l.883-.482a.926.926 0 0 0 .361.532c.177.12.405.18.682.18.238 0 .425-.055.562-.165a.545.545 0 0 0 .205-.448c0-.25-.243-.466-.727-.646-.163-.06-.29-.11-.38-.15-.495-.204-.842-.412-1.039-.624a1.104 1.104 0 0 1-.295-.777c0-.416.161-.752.485-1.01.325-.258.756-.387 1.291-.387.36 0 .668.067.924.2.257.131.446.32.565.566l-.755.518a.711.711 0 0 0-.292-.35.892.892 0 0 0-.485-.132.772.772 0 0 0-.49.146.47.47 0 0 0-.182.387c0 .24.275.461.825.66.172.064.306.115.401.154.428.17.734.363.92.576.184.214.277.48.277.8 0 .464-.17.827-.507 1.09-.336.263-.8.394-1.39.394-.456 0-.834-.084-1.135-.252-.3-.17-.535-.43-.704-.78ZM54.62 66.624l.883-.482a.927.927 0 0 0 .361.532c.177.12.405.18.682.18.239 0 .425-.055.562-.165a.545.545 0 0 0 .205-.448c0-.25-.243-.466-.726-.646-.164-.06-.29-.11-.38-.15-.496-.204-.843-.412-1.04-.624a1.105 1.105 0 0 1-.295-.777c0-.416.161-.752.485-1.01.326-.258.756-.387 1.292-.387.36 0 .667.067.923.2.257.131.446.32.565.566l-.755.518a.709.709 0 0 0-.292-.35.891.891 0 0 0-.485-.132.773.773 0 0 0-.49.146.47.47 0 0 0-.181.387c0 .24.274.461.824.66.173.064.307.115.401.154.428.17.735.363.92.576.184.214.277.48.277.8 0 .464-.17.827-.507 1.09-.336.263-.8.394-1.39.394-.455 0-.834-.084-1.135-.252-.3-.17-.534-.43-.704-.78ZM59.337 60.808c0-.18.066-.334.197-.464a.653.653 0 0 1 .474-.197.646.646 0 0 1 .664.66.65.65 0 0 1-.193.479.631.631 0 0 1-.471.193.653.653 0 0 1-.474-.197.654.654 0 0 1-.197-.474Zm.142 2.01h1.065v4.648H59.48v-4.648ZM65.712 65.157c0-.43-.14-.796-.42-1.095a1.334 1.334 0 0 0-1.018-.448c-.4 0-.739.149-1.018.448-.28.3-.42.664-.42 1.095 0 .43.14.795.42 1.094.28.3.619.449 1.018.449s.738-.15 1.018-.449c.28-.299.42-.664.42-1.094Zm-3.995-.011c0-.338.063-.658.193-.96a2.483 2.483 0 0 1 1.379-1.342c.311-.125.636-.187.974-.187.35 0 .68.062.989.187.308.124.586.306.832.547a2.428 2.428 0 0 1 .748 1.755c0 .343-.064.666-.19.967a2.302 2.302 0 0 1-.55.799 2.585 2.585 0 0 1-1.829.744 2.566 2.566 0 0 1-2.357-1.547 2.455 2.455 0 0 1-.19-.963ZM67.963 67.466v-4.648h1v.759c.211-.318.46-.551.748-.697.288-.148.639-.223 1.05-.223.345 0 .64.055.883.165.246.11.436.271.573.485.082.13.14.279.175.449.037.17.055.467.055.89v2.82h-1.073V65.08c0-.613-.075-1.019-.222-1.218-.15-.202-.413-.303-.792-.303-.248 0-.47.046-.664.138-.195.09-.349.22-.46.387-.078.11-.133.252-.164.427a5.184 5.184 0 0 0-.047.835v2.12h-1.062ZM78.236 67.466h-1.061v-.602c-.19.268-.413.467-.668.599a1.892 1.892 0 0 1-.869.193c-.656 0-1.174-.224-1.55-.671-.378-.45-.566-1.066-.566-1.847 0-.741.192-1.34.577-1.795.386-.457.89-.686 1.51-.686.38 0 .704.08.975.238.27.158.467.386.59.682v-.76h1.062v4.65Zm-1.032-2.338c0-.482-.113-.856-.336-1.124-.224-.268-.538-.402-.941-.402-.402 0-.718.139-.949.416-.229.276-.343.659-.343 1.15 0 .494.11.874.332 1.142.22.268.535.401.942.401.38 0 .693-.144.933-.434.241-.292.362-.675.362-1.15ZM79.757 67.466h1.065v-7.6h-1.065v7.6ZM86.607 63.318h.445c.557 0 .95-.075 1.179-.226.23-.154.346-.41.346-.77 0-.391-.107-.666-.32-.825-.212-.158-.614-.237-1.205-.237h-.445v2.058Zm0 3.174h.401c.409 0 .714-.016.916-.047.204-.034.365-.092.482-.175a.949.949 0 0 0 .332-.384c.08-.16.12-.336.12-.529 0-.228-.047-.427-.142-.598a.999.999 0 0 0-.409-.398 1.602 1.602 0 0 0-.38-.12 3.207 3.207 0 0 0-.565-.04h-.755v2.291Zm-1.142.974V60.29h1.81c.515 0 .895.028 1.142.084.248.053.457.145.631.273.22.163.392.378.514.642.124.266.187.558.187.876 0 .385-.09.706-.267.963-.175.255-.43.433-.766.533.418.066.746.257.985.573.24.314.361.711.361 1.193 0 .292-.05.569-.153.832-.1.26-.244.481-.43.664-.196.2-.439.34-.73.423-.292.08-.781.12-1.467.12h-1.817ZM91.023 66.923c0-.18.062-.333.186-.46a.609.609 0 0 1 .456-.193.61.61 0 0 1 .456.193c.124.127.186.28.186.46a.628.628 0 0 1-.642.631.627.627 0 0 1-.642-.631ZM96.296 67.747l-3.204-7.458h1.212l1.609 3.824c.094.222.172.427.233.617.063.188.113.367.15.536.04-.18.095-.366.16-.558a7.84 7.84 0 0 1 .23-.595l1.606-3.824h1.204l-3.2 7.458ZM98.623 66.923c0-.18.062-.333.186-.46a.608.608 0 0 1 .456-.193.61.61 0 0 1 .456.193c.124.127.186.28.186.46a.629.629 0 0 1-.642.631.627.627 0 0 1-.642-.631Z" fill="#414141"/><path fill-rule="evenodd" clip-rule="evenodd" d="M37.248 41.593c.78-1.899 2-3.429 3.666-4.588 1.658-1.16 3.57-1.756 5.733-1.787 2.872.07 5.258 1.06 7.158 2.966 1.906 1.9 2.895 4.285 2.965 7.157 0 .452-.031.895-.094 1.331-2.335.14-4.57-.125-6.702-.793a71.027 71.027 0 0 1-6.327-2.3 35.786 35.786 0 0 0-6.399-1.986Z" fill="#FFC223"/><path fill-rule="evenodd" clip-rule="evenodd" d="M47.488 44.185h3.69V33l-3.69 1.11v10.075" fill="#003D7D"/><path fill-rule="evenodd" clip-rule="evenodd" d="M54.843 45.4h-3.69V33l3.69 1.11V45.4Z" fill="#0075BF"/><path fill-rule="evenodd" clip-rule="evenodd" d="M53.314 46.579h3.69V35.394l-3.69 1.109v10.076Z" fill="#003D7D"/><path fill-rule="evenodd" clip-rule="evenodd" d="M60.681 46.579h-3.69V35.394l3.69 1.109v10.076Z" fill="#0075BF"/><path fill-rule="evenodd" clip-rule="evenodd" d="m59.151 47.757 3.69 1.204V37.775l-3.69 1.11v8.872Z" fill="#003D7D"/><path fill-rule="evenodd" clip-rule="evenodd" d="M66.519 48.96h-3.69V37.776l3.69 1.11V48.96Z" fill="#0075BF"/><path fill-rule="evenodd" clip-rule="evenodd" d="M28.62 43.298c3.215-1.502 7.08-2.005 11.594-1.506 4.506.505 9.29 1.607 14.35 3.304a67.3 67.3 0 0 0 7.26 2.008c2.367.514 4.625.74 6.773.677 2.187-.015 4.114-.614 5.779-1.797.817-.615 1.46-1.453 1.926-2.51.46-1.051.674-2.192.642-3.422a8.297 8.297 0 0 1-.326 3.69c-.39 1.229-1.008 2.257-1.856 3.081-1.72 1.557-3.725 2.445-6.013 2.663-2.25.272-4.593.198-7.029-.222a51.4 51.4 0 0 1-7.437-1.891c-5.005-1.681-9.71-2.974-14.116-3.877-4.398-.902-8.247-.969-11.547-.198" fill="#003D7D"/><path fill-rule="evenodd" clip-rule="evenodd" d="M22 54.577c.047-1.464.429-2.802 1.145-4.017.716-1.222 1.603-2.214 2.661-2.978 2.148-1.486 4.562-2.35 7.239-2.59 2.647-.281 5.398-.18 8.255.303 2.849.49 5.752 1.23 8.71 2.218a93.127 93.127 0 0 0 8.383 2.404c2.716.632 5.316.982 7.799 1.051 2.46.101 4.728-.318 6.807-1.26 2.086-.942 3.506-2.744 4.261-5.406a8.974 8.974 0 0 1-1.074 4.063c-.67 1.26-1.525 2.304-2.569 3.129-2.109 1.611-4.502 2.576-7.18 2.896-2.646.342-5.402.292-8.266-.153-2.857-.451-5.767-1.174-8.734-2.17a104.518 104.518 0 0 0-8.394-2.452c-2.717-.67-5.316-1.071-7.8-1.203-2.497-.172-4.782.156-6.853.98a7.872 7.872 0 0 0-2.72 1.915c-.802.849-1.358 1.938-1.67 3.27" fill="#0075BF"/></svg>
